<?xml version="1.0" encoding="UTF-8" standalone="no"?>
<svg
   xmlns:dc="http://purl.org/dc/elements/1.1/"
   xmlns:cc="http://creativecommons.org/ns#"
   xmlns:rdf="http://www.w3.org/1999/02/22-rdf-syntax-ns#"
   xmlns:svg="http://www.w3.org/2000/svg"
   xmlns="http://www.w3.org/2000/svg"
   height="100"
   width="117.70588"
   id="svg12"
   xml:space="preserve"
   enable-background="new 0 0 100 100"
   viewBox="0 0 117.70588 100"
   y="0px"
   x="0px"
   version="1.0"><metadata
     id="metadata18"><rdf:RDF><cc:Work
         rdf:about=""><dc:format>image/svg+xml</dc:format><dc:type
           rdf:resource="http://purl.org/dc/dcmitype/StillImage" /><dc:title></dc:title></cc:Work></rdf:RDF></metadata><defs
     id="defs16"><marker
   style="overflow:visible"
   id="Arrow1Send"
   refX="0"
   refY="0"
   orient="auto"><path
     transform="matrix(-0.2,0,0,-0.2,-1.2,0)"
     style="fill:#ff0000;fill-opacity:1;fill-rule:evenodd;stroke:#ff1616;stroke-width:1.00000003pt;stroke-opacity:1"
     d="M 0,0 5,-5 -12.5,0 5,5 Z"
     id="path5553" /></marker><marker
   style="overflow:visible"
   id="Arrow1Lend"
   refX="0"
   refY="0"
   orient="auto"><path
     transform="matrix(-0.8,0,0,-0.8,-10,0)"
     style="fill:#ff0000;fill-opacity:1;fill-rule:evenodd;stroke:#ff1616;stroke-width:1.00000003pt;stroke-opacity:1"
     d="M 0,0 5,-5 -12.5,0 5,5 Z"
     id="path5541" /></marker>
	

		
	<clipPath
   id="a"><path
     style="fill:none"
     d="M 3,4 H 108 V 109 H 3 Z"
     id="path4858" /></clipPath><marker
   style="overflow:visible"
   id="Arrow1Send-8"
   refX="0"
   refY="0"
   orient="auto"><path
     transform="matrix(-0.2,0,0,-0.2,-1.2,0)"
     style="fill:#ff0000;fill-opacity:1;fill-rule:evenodd;stroke:#ff1616;stroke-width:1.00000003pt;stroke-opacity:1"
     d="M 0,0 5,-5 -12.5,0 5,5 Z"
     id="path5553-4" /></marker><marker
   style="overflow:visible"
   id="Arrow1Send-6"
   refX="0"
   refY="0"
   orient="auto"><path
     transform="matrix(-0.2,0,0,-0.2,-1.2,0)"
     style="fill:#ff0000;fill-opacity:1;fill-rule:evenodd;stroke:#ff1616;stroke-width:1.00000003pt;stroke-opacity:1"
     d="M 0,0 5,-5 -12.5,0 5,5 Z"
     id="path5553-46" /></marker><marker
   style="overflow:visible"
   id="Arrow1Send-1"
   refX="0"
   refY="0"
   orient="auto"><path
     transform="matrix(-0.2,0,0,-0.2,-1.2,0)"
     style="fill:#ff0000;fill-opacity:1;fill-rule:evenodd;stroke:#ff1616;stroke-width:1.00000003pt;stroke-opacity:1"
     d="M 0,0 5,-5 -12.5,0 5,5 Z"
     id="path5553-3" /></marker><marker
   style="overflow:visible"
   id="Arrow1Send-9"
   refX="0"
   refY="0"
   orient="auto"><path
     transform="matrix(-0.2,0,0,-0.2,-1.2,0)"
     style="fill:#ff0000;fill-opacity:1;fill-rule:evenodd;stroke:#ff1616;stroke-width:1.00000003pt;stroke-opacity:1"
     d="M 0,0 5,-5 -12.5,0 5,5 Z"
     id="path5553-2" /></marker><marker
   style="overflow:visible"
   id="Arrow1Send-99"
   refX="0"
   refY="0"
   orient="auto"><path
     transform="matrix(-0.2,0,0,-0.2,-1.2,0)"
     style="fill:#ff0000;fill-opacity:1;fill-rule:evenodd;stroke:#ff1616;stroke-width:1.00000003pt;stroke-opacity:1"
     d="M 0,0 5,-5 -12.5,0 5,5 Z"
     id="path5553-9" /></marker><marker
   style="overflow:visible"
   id="Arrow1Send-80"
   refX="0"
   refY="0"
   orient="auto"><path
     transform="matrix(-0.2,0,0,-0.2,-1.2,0)"
     style="fill:#ff0000;fill-opacity:1;fill-rule:evenodd;stroke:#ff1616;stroke-width:1.00000003pt;stroke-opacity:1"
     d="M 0,0 5,-5 -12.5,0 5,5 Z"
     id="path5553-6" /></marker><clipPath
   clipPathUnits="userSpaceOnUse"
   id="clipPath18"><path
     d="M 0,360 H 841.89 V 0 H 0 Z"
     id="path16" /></clipPath><linearGradient
   x1="0"
   y1="0"
   x2="1"
   y2="0"
   gradientUnits="userSpaceOnUse"
   gradientTransform="matrix(-6.9e-6,158.73975,-158.73975,-6.9e-6,171.5,108.625)"
   spreadMethod="pad"
   id="linearGradient116"><stop
     style="stop-opacity:1;stop-color:#035656"
     offset="0"
     id="stop110" /><stop
     style="stop-opacity:1;stop-color:#05acac"
     offset="0.99773514"
     id="stop112" /><stop
     style="stop-opacity:1;stop-color:#05acac"
     offset="1"
     id="stop114" /></linearGradient><clipPath
   clipPathUnits="userSpaceOnUse"
   id="clipPath126"><path
     d="M 0,360 H 841.89 V 0 H 0 Z"
     id="path124" /></clipPath><clipPath
   clipPathUnits="userSpaceOnUse"
   id="clipPath9148"><path
     d="M 0,360 H 841.89 V 0 H 0 Z"
     id="path9146" /></clipPath><clipPath
   clipPathUnits="userSpaceOnUse"
   id="clipPath9256"><path
     d="M 0,360 H 841.89 V 0 H 0 Z"
     id="path9254" /></clipPath>









</defs><g
     transform="rotate(-90,80.431945,466.24601)"
     id="g4629">
</g><g
     transform="rotate(-90,80.431945,466.24601)"
     id="g4631">
</g><g
     transform="rotate(-90,80.431945,466.24601)"
     id="g4633">
</g><g
     transform="rotate(-90,80.431945,466.24601)"
     id="g4635">
</g><g
     transform="rotate(-90,80.431945,466.24601)"
     id="g4637">
</g><g
     transform="rotate(-90,80.431945,466.24601)"
     id="g4639">
</g><g
     transform="rotate(-90,80.431945,466.24601)"
     id="g4641">
</g><g
     transform="rotate(-90,80.431945,466.24601)"
     id="g4643">
</g><g
     transform="rotate(-90,80.431945,466.24601)"
     id="g4645">
</g><g
     transform="rotate(-90,80.431945,466.24601)"
     id="g4647">
</g><g
     transform="rotate(-90,80.431945,466.24601)"
     id="g4649">
</g><g
     transform="rotate(-90,80.431945,466.24601)"
     id="g4651">
</g><g
     transform="rotate(-90,80.431945,466.24601)"
     id="g4653">
</g><g
     transform="rotate(-90,80.431945,466.24601)"
     id="g4655">
</g><g
     transform="rotate(-90,80.431945,466.24601)"
     id="g4657">
</g><g
     transform="translate(-501,-150.00001)"
     id="layer2">

<path
   style="stroke-width:0.11488971"
   d="m 561.83682,168.24837 c -20.00376,-0.24 -24.882,10.84776 -24.882,10.84776 l 11.55706,11.52435 a 14.625294,14.625294 0 0 0 -3.1867,7.70483 l -17.12259,-0.19671 c -0.22918,19.99283 10.85858,24.84953 10.85858,24.84953 l 11.72082,-11.7427 c 2.04083,1.626 4.52906,2.72834 7.26789,3.05576 l -0.20717,17.46094 c 19.98212,0.22906 24.86011,-10.84765 24.86011,-10.84765 l -11.67718,-11.67694 c 1.71342,-2.02988 2.87035,-4.53976 3.2633,-7.30083 l 17.43883,0.19648 c 0.22894,-19.98212 -10.86942,-24.86035 -10.86942,-24.86035 l -11.48071,11.49141 a 14.39706,14.39706 0 0 0 -7.7374,-3.41565 z m 6.952,31.85564 c -0.0545,4.88212 -4.05611,8.796 -8.93811,8.74153 -4.88201,-0.0543 -8.79577,-4.05588 -8.74142,-8.93799 0.0542,-4.88201 4.05589,-8.79554 8.938,-8.74154 4.88188,0.0543 8.79553,4.05612 8.74153,8.938 z m -14.55588,-0.16388 c -0.0329,3.26058 2.58329,5.93106 5.84412,5.96388 3.12518,-0.15529 5.58871,-2.71812 5.62035,-5.84741 0.0322,-3.12906 -2.37883,-5.74152 -5.50047,-5.96035 -3.26059,-0.0335 -5.9307,2.58329 -5.964,5.84388 z m 64.47294,-49.94012 h -58.82353 c -6.73176,0.005 -13.26353,1.32823 -19.4153,3.93059 -5.95411,2.51883 -11.30117,6.12353 -15.89176,10.71412 -4.59058,4.59058 -8.19529,9.93765 -10.71412,15.89176 -2.60823,6.16706 -3.93058,12.7153 -3.93058,19.46354 0,6.74822 1.32235,13.29764 3.93058,19.46352 a 49.722943,49.722943 0 0 0 2.75647,5.53647 H 501 v 25 h 58.82353 v -0.001 c 0.0353,0.001 0.0718,0.001 0.10701,0.001 6.74812,0 13.29648,-1.32235 19.46341,-3.93059 5.95413,-2.51882 11.3013,-6.12352 15.89178,-10.71412 4.5907,-4.59058 8.19541,-9.93765 10.71423,-15.89176 2.60823,-6.16588 3.93058,-12.7153 3.93058,-19.46352 0,-8.88942 -2.29659,-17.42942 -6.68587,-25.00001 h 15.46117 z m -64.76471,94.11765 h -47.05882 v -13.23529 h 21.57177 a 44.34812,44.34812 0 0 1 -4.85648,-5.88236 c -4.90823,-7.11059 -7.7847,-15.72588 -7.7847,-24.99999 0,-24.32589 19.79059,-44.11765 44.11764,-44.11765 h 52.89294 v 13.23529 h -20.85528 l 3.46588,4.68941 c 5.63517,7.6247 8.61412,16.68235 8.61412,26.19295 0,24.32705 -19.79059,44.11764 -44.11766,44.11764 -0.0353,0 -0.0717,0 -0.10701,-0.001"
   id="path4718" />







</g><g
     transform="translate(-501,-150.00001)"
     style="display:none"
     id="layer1"><text
   id="text5421"
   y="660.78217"
   x="55.357456"
   style="font-style:normal;font-variant:normal;font-weight:normal;font-stretch:normal;font-size:42.66666794px;line-height:1.25;font-family:sans-serif;-inkscape-font-specification:'sans-serif, Normal';font-variant-ligatures:normal;font-variant-caps:normal;font-variant-numeric:normal;font-feature-settings:normal;text-align:start;letter-spacing:0px;word-spacing:0px;writing-mode:lr-tb;text-anchor:start;fill:#000000;fill-opacity:1;stroke:none"
   xml:space="preserve"><tspan
     style="font-style:normal;font-variant:normal;font-weight:normal;font-stretch:normal;font-size:26.66666603px;font-family:sans-serif;-inkscape-font-specification:'sans-serif, Normal';font-variant-ligatures:normal;font-variant-caps:normal;font-variant-numeric:normal;font-feature-settings:normal;text-align:start;writing-mode:lr-tb;text-anchor:start;fill:#ff0000;fill-opacity:1"
     y="660.78217"
     x="55.357456"
     id="tspan5419">Mezičasy</tspan></text>


<text
   id="text5425"
   y="643.81409"
   x="316.44238"
   style="font-style:normal;font-variant:normal;font-weight:normal;font-stretch:normal;font-size:26.66666603px;line-height:1.25;font-family:sans-serif;-inkscape-font-specification:'sans-serif, Normal';font-variant-ligatures:normal;font-variant-caps:normal;font-variant-numeric:normal;font-feature-settings:normal;text-align:start;letter-spacing:0px;word-spacing:0px;writing-mode:lr-tb;text-anchor:start;fill:#ff0000;fill-opacity:1;stroke:none"
   xml:space="preserve"><tspan
     y="643.81409"
     x="316.44238"
     id="tspan5423">Otáčky motoru</tspan><tspan
     id="tspan5474"
     y="677.1474"
     x="316.44238">(1/min)</tspan></text>


<text
   id="text5421-3"
   y="55.660248"
   x="883.18756"
   style="font-style:normal;font-variant:normal;font-weight:normal;font-stretch:normal;font-size:42.66666794px;line-height:1.25;font-family:sans-serif;-inkscape-font-specification:'sans-serif, Normal';font-variant-ligatures:normal;font-variant-caps:normal;font-variant-numeric:normal;font-feature-settings:normal;text-align:start;letter-spacing:0px;word-spacing:0px;writing-mode:lr-tb;text-anchor:start;fill:#000000;fill-opacity:1;stroke:none"
   xml:space="preserve"><tspan
     style="font-style:normal;font-variant:normal;font-weight:normal;font-stretch:normal;font-size:26.66666603px;font-family:sans-serif;-inkscape-font-specification:'sans-serif, Normal';font-variant-ligatures:normal;font-variant-caps:normal;font-variant-numeric:normal;font-feature-settings:normal;text-align:start;writing-mode:lr-tb;text-anchor:start;fill:#ff0000;fill-opacity:1"
     y="55.660248"
     x="883.18756"
     id="tspan5419-7">Průtok před PS12 (l/min)</tspan><tspan
     id="tspan5445"
     style="font-style:normal;font-variant:normal;font-weight:normal;font-stretch:normal;font-size:26.66666603px;font-family:sans-serif;-inkscape-font-specification:'sans-serif, Normal';font-variant-ligatures:normal;font-variant-caps:normal;font-variant-numeric:normal;font-feature-settings:normal;text-align:start;writing-mode:lr-tb;text-anchor:start;fill:#ff0000;fill-opacity:1"
     y="108.99358"
     x="883.18756" /></text>


<text
   id="text5421-3-5"
   y="428.28009"
   x="835.9588"
   style="font-style:normal;font-variant:normal;font-weight:normal;font-stretch:normal;font-size:42.66666794px;line-height:1.25;font-family:sans-serif;-inkscape-font-specification:'sans-serif, Normal';font-variant-ligatures:normal;font-variant-caps:normal;font-variant-numeric:normal;font-feature-settings:normal;text-align:start;letter-spacing:0px;word-spacing:0px;writing-mode:lr-tb;text-anchor:start;fill:#000000;fill-opacity:1;stroke:none"
   xml:space="preserve"><tspan
     id="tspan5468"
     style="font-style:normal;font-variant:normal;font-weight:normal;font-stretch:normal;font-size:26.66666603px;font-family:sans-serif;-inkscape-font-specification:'sans-serif, Normal';font-variant-ligatures:normal;font-variant-caps:normal;font-variant-numeric:normal;font-feature-settings:normal;text-align:start;writing-mode:lr-tb;text-anchor:start;fill:#ff0000;fill-opacity:1"
     y="428.28009"
     x="835.9588">Tlak před PS12 (bar)</tspan><tspan
     id="tspan5445-2"
     style="font-style:normal;font-variant:normal;font-weight:normal;font-stretch:normal;font-size:26.66666603px;font-family:sans-serif;-inkscape-font-specification:'sans-serif, Normal';font-variant-ligatures:normal;font-variant-caps:normal;font-variant-numeric:normal;font-feature-settings:normal;text-align:start;writing-mode:lr-tb;text-anchor:start;fill:#ff0000;fill-opacity:1"
     y="481.61343"
     x="835.9588" /></text>


<text
   id="text5421-3-2"
   y="-14.26407"
   x="259.51639"
   style="font-style:normal;font-variant:normal;font-weight:normal;font-stretch:normal;font-size:42.66666794px;line-height:1.25;font-family:sans-serif;-inkscape-font-specification:'sans-serif, Normal';font-variant-ligatures:normal;font-variant-caps:normal;font-variant-numeric:normal;font-feature-settings:normal;text-align:start;letter-spacing:0px;word-spacing:0px;writing-mode:lr-tb;text-anchor:start;fill:#000000;fill-opacity:1;stroke:none"
   xml:space="preserve"><tspan
     id="tspan5445-9"
     style="font-style:normal;font-variant:normal;font-weight:normal;font-stretch:normal;font-size:26.66666603px;font-family:sans-serif;-inkscape-font-specification:'sans-serif, Normal';font-variant-ligatures:normal;font-variant-caps:normal;font-variant-numeric:normal;font-feature-settings:normal;text-align:start;writing-mode:lr-tb;text-anchor:start;fill:#ff0000;fill-opacity:1"
     y="-14.26407"
     x="259.51639">Průběžný čas od startu</tspan></text>


<text
   id="text5421-3-20"
   y="265.47098"
   x="925.02106"
   style="font-style:normal;font-variant:normal;font-weight:normal;font-stretch:normal;font-size:42.66666794px;line-height:1.25;font-family:sans-serif;-inkscape-font-specification:'sans-serif, Normal';font-variant-ligatures:normal;font-variant-caps:normal;font-variant-numeric:normal;font-feature-settings:normal;text-align:start;letter-spacing:0px;word-spacing:0px;writing-mode:lr-tb;text-anchor:start;fill:#000000;fill-opacity:1;stroke:none"
   xml:space="preserve"><tspan
     id="tspan5511"
     style="font-style:normal;font-variant:normal;font-weight:normal;font-stretch:normal;font-size:26.66666603px;font-family:sans-serif;-inkscape-font-specification:'sans-serif, Normal';font-variant-ligatures:normal;font-variant-caps:normal;font-variant-numeric:normal;font-feature-settings:normal;text-align:start;writing-mode:lr-tb;text-anchor:start;fill:#ff0000;fill-opacity:1"
     y="265.47098"
     x="925.02106">Průtok za PS12 (l/min)</tspan><tspan
     id="tspan5445-4"
     style="font-style:normal;font-variant:normal;font-weight:normal;font-stretch:normal;font-size:26.66666603px;font-family:sans-serif;-inkscape-font-specification:'sans-serif, Normal';font-variant-ligatures:normal;font-variant-caps:normal;font-variant-numeric:normal;font-feature-settings:normal;text-align:start;writing-mode:lr-tb;text-anchor:start;fill:#ff0000;fill-opacity:1"
     y="318.80432"
     x="925.02106" /></text>


<text
   id="text5421-3-5-1"
   y="582.17413"
   x="878.61652"
   style="font-style:normal;font-variant:normal;font-weight:normal;font-stretch:normal;font-size:42.66666794px;line-height:1.25;font-family:sans-serif;-inkscape-font-specification:'sans-serif, Normal';font-variant-ligatures:normal;font-variant-caps:normal;font-variant-numeric:normal;font-feature-settings:normal;text-align:start;letter-spacing:0px;word-spacing:0px;writing-mode:lr-tb;text-anchor:start;fill:#000000;fill-opacity:1;stroke:none"
   xml:space="preserve"><tspan
     id="tspan5468-7"
     style="font-style:normal;font-variant:normal;font-weight:normal;font-stretch:normal;font-size:26.66666603px;font-family:sans-serif;-inkscape-font-specification:'sans-serif, Normal';font-variant-ligatures:normal;font-variant-caps:normal;font-variant-numeric:normal;font-feature-settings:normal;text-align:start;writing-mode:lr-tb;text-anchor:start;fill:#ff0000;fill-opacity:1"
     y="582.17413"
     x="878.61652">Tlak za PS12 (bar)</tspan><tspan
     id="tspan5445-2-6"
     style="font-style:normal;font-variant:normal;font-weight:normal;font-stretch:normal;font-size:26.66666603px;font-family:sans-serif;-inkscape-font-specification:'sans-serif, Normal';font-variant-ligatures:normal;font-variant-caps:normal;font-variant-numeric:normal;font-feature-settings:normal;text-align:start;writing-mode:lr-tb;text-anchor:start;fill:#ff0000;fill-opacity:1"
     y="635.50745"
     x="878.61652" /></text>


<path
   id="path5536"
   d="m 150,620 c 60,-80 60,-80 60,-80"
   style="fill:#ff0000;fill-opacity:1;stroke:#ff1616;stroke-width:5;stroke-linecap:butt;stroke-linejoin:miter;stroke-miterlimit:4;stroke-dasharray:none;stroke-opacity:1;marker-end:url(#Arrow1Send)" /><path
   id="path5536-5"
   d="m 380,600 10,-60"
   style="fill:#ff0000;fill-opacity:1;stroke:#ff1616;stroke-width:5;stroke-linecap:butt;stroke-linejoin:miter;stroke-miterlimit:4;stroke-dasharray:none;stroke-opacity:1;marker-end:url(#Arrow1Send-8)" /><path
   id="path5536-54"
   d="M 900,70 520,330"
   style="fill:#ff0000;fill-opacity:1;stroke:#ff1616;stroke-width:5;stroke-linecap:butt;stroke-linejoin:miter;stroke-miterlimit:4;stroke-dasharray:none;stroke-opacity:1;marker-end:url(#Arrow1Send-6)" /><path
   id="path5536-6"
   d="M 910,260 620,340"
   style="fill:#ff0000;fill-opacity:1;stroke:#ff1616;stroke-width:5;stroke-linecap:butt;stroke-linejoin:miter;stroke-miterlimit:4;stroke-dasharray:none;stroke-opacity:1;marker-end:url(#Arrow1Send-1)" /><path
   id="path5536-3"
   d="M 820,420 710,380"
   style="fill:#ff0000;fill-opacity:1;stroke:#ff1616;stroke-width:5;stroke-linecap:butt;stroke-linejoin:miter;stroke-miterlimit:4;stroke-dasharray:none;stroke-opacity:1;marker-end:url(#Arrow1Send-9)" /><path
   id="path5536-9"
   d="M 870,570 760,530"
   style="fill:#ff0000;fill-opacity:1;stroke:#ff1616;stroke-width:5;stroke-linecap:butt;stroke-linejoin:miter;stroke-miterlimit:4;stroke-dasharray:none;stroke-opacity:1;marker-end:url(#Arrow1Send-99)" /><path
   id="path5536-7"
   d="m 370,0 20,80"
   style="fill:#ff0000;fill-opacity:1;stroke:#ff1616;stroke-width:5;stroke-linecap:butt;stroke-linejoin:miter;stroke-miterlimit:4;stroke-dasharray:none;stroke-opacity:1;marker-end:url(#Arrow1Send-80)" /></g></svg>